<?xml version="1.0" standalone="no"?>
<!DOCTYPE svg PUBLIC "-//W3C//DTD SVG 20010904//EN"
 "http://www.w3.org/TR/2001/REC-SVG-20010904/DTD/svg10.dtd">
<svg version="1.0" xmlns="http://www.w3.org/2000/svg"
 width="500.000000pt" height="500.000000pt" viewBox="0 0 500.000000 500.000000"
 preserveAspectRatio="xMidYMid meet">

<g transform="translate(0.000000,500.000000) scale(0.100000,-0.100000)"
fill="#000000" stroke="none">
<path d="M2260 4988 c-489 -51 -940 -234 -1330 -542 -41 -33 -133 -118 -205
-190 -393 -396 -626 -875 -707 -1451 -16 -116 -16 -494 0 -610 68 -485 240
-890 540 -1270 73 -92 277 -296 372 -371 453 -358 1008 -554 1570 -554 562 0
1117 196 1570 554 95 75 299 279 372 371 300 380 472 785 540 1270 7 50 13
186 13 305 0 119 -6 255 -13 305 -70 503 -253 920 -570 1303 -311 376 -761
665 -1248 802 -274 77 -627 107 -904 78z m-6 -1746 c88 -33 135 -64 194 -126
163 -172 173 -467 20 -632 -23 -25 -67 -60 -96 -77 l-53 -30 43 -24 c131 -74
168 -177 168 -473 0 -189 7 -226 47 -264 18 -18 33 -41 33 -50 0 -15 -19 -16
-202 -14 l-203 3 -13 50 c-7 28 -17 142 -22 255 -10 220 -17 259 -52 298 -52
55 -63 57 -340 60 l-258 3 0 -335 0 -336 -180 0 -180 0 0 860 0 861 518 -3
c506 -3 518 -4 576 -26z m1596 -611 c0 -709 -4 -760 -62 -878 -55 -112 -166
-196 -300 -228 -82 -19 -282 -19 -372 0 -145 31 -256 107 -310 212 -42 84 -57
159 -63 316 l-6 147 172 0 171 0 0 -89 c0 -229 55 -311 208 -311 92 0 143 26
174 88 l23 47 3 668 3 667 179 0 180 0 0 -639z"/>
<path d="M1520 2751 l0 -231 253 0 c198 0 264 3 303 15 82 25 118 67 135 159
14 80 -2 151 -46 204 -60 70 -85 75 -382 80 l-263 4 0 -231z"/>
</g>
</svg>
